<svg width="61" height="62" viewBox="0 0 61 62" fill="none" xmlns="http://www.w3.org/2000/svg">
<path d="M51.9062 9.3125C50.4688 7.875 48.9167 6.60417 47.25 5.5C45.6042 4.39583 43.8646 3.46875 42.0312 2.71875C40.2188 1.94792 38.3333 1.375 36.375 1C34.4167 0.604167 32.4271 0.40625 30.4062 0.40625C28.3646 0.40625 26.3646 0.604167 24.4062 1C22.4688 1.375 20.5833 1.94792 18.75 2.71875C16.9375 3.46875 15.1979 4.39583 13.5312 5.5C11.8854 6.60417 10.3438 7.875 8.90625 9.3125C7.46875 10.75 6.19792 12.3021 5.09375 13.9688C3.98958 15.6146 3.05208 17.3542 2.28125 19.1875C1.53125 21 0.958333 22.8854 0.5625 24.8438C0.1875 26.7812 0 28.7708 0 30.8125C0 32.8333 0.1875 34.8229 0.5625 36.7812C0.958333 38.7396 1.53125 40.625 2.28125 42.4375C3.05208 44.25 3.98958 45.9896 5.09375 47.6562C6.19792 49.3229 7.46875 50.8646 8.90625 52.2812C10.3438 53.7188 11.8854 55 13.5312 56.125C15.1979 57.2292 16.9375 58.1562 18.75 58.9062C20.5833 59.6562 22.4688 60.2188 24.4062 60.5938C26.3646 60.9896 28.3646 61.1875 30.4062 61.1875C32.4271 61.1875 34.4167 60.9896 36.375 60.5938C38.3333 60.2188 40.2188 59.6562 42.0312 58.9062C43.8646 58.1562 45.6042 57.2292 47.25 56.125C48.9167 55 50.4688 53.7188 51.9062 52.2812C53.3438 50.8646 54.6146 49.3229 55.7188 47.6562C56.8229 45.9896 57.75 44.25 58.5 42.4375C59.25 40.625 59.8229 38.7396 60.2188 36.7812C60.6146 34.8229 60.8125 32.8333 60.8125 30.8125C60.8125 28.7708 60.6146 26.7812 60.2188 24.8438C59.8229 22.8854 59.25 21 58.5 19.1875C57.75 17.3542 56.8229 15.6146 55.7188 13.9688C54.6146 12.3021 53.3438 10.75 51.9062 9.3125ZM30.4062 58C26.6562 58 23.125 57.2917 19.8125 55.875C16.5208 54.4375 13.6354 52.4896 11.1562 50.0312C8.69792 47.5729 6.75 44.6979 5.3125 41.4062C3.89583 38.0938 3.1875 34.5625 3.1875 30.8125C3.1875 27.0625 3.89583 23.5417 5.3125 20.25C6.75 16.9375 8.69792 14.0521 11.1562 11.5938C13.6354 9.11458 16.5208 7.16667 19.8125 5.75C23.125 4.3125 26.6562 3.59375 30.4062 3.59375C34.1562 3.59375 37.6771 4.3125 40.9688 5.75C44.2812 7.16667 47.1667 9.11458 49.625 11.5938C52.0833 14.0521 54.0208 16.9375 55.4375 20.25C56.875 23.5417 57.5938 27.0625 57.5938 30.8125C57.5938 34.5625 56.875 38.0938 55.4375 41.4062C54.0208 44.6979 52.0833 47.5729 49.625 50.0312C47.1667 52.4896 44.2812 54.4375 40.9688 55.875C37.6771 57.2917 34.1562 58 30.4062 58ZM49.5938 29.1875H32V11.5938C32 11.1562 31.8438 10.7812 31.5312 10.4688C31.2188 10.1562 30.8438 10 30.4062 10C29.9688 10 29.5938 10.1562 29.2812 10.4688C28.9688 10.7812 28.8125 11.1562 28.8125 11.5938V29.1875H11.1875C10.75 29.1875 10.375 29.3438 10.0625 29.6562C9.75 29.9688 9.59375 30.3542 9.59375 30.8125C9.59375 31.25 9.75 31.625 10.0625 31.9375C10.375 32.25 10.75 32.4062 11.1875 32.4062H28.8125V50C28.8125 50.4375 28.9688 50.8125 29.2812 51.125C29.5938 51.4375 29.9688 51.5938 30.4062 51.5938C30.8438 51.5938 31.2188 51.4375 31.5312 51.125C31.8438 50.8125 32 50.4375 32 50V32.4062H49.5938C50.0312 32.4062 50.4062 32.25 50.7188 31.9375C51.0312 31.625 51.1875 31.25 51.1875 30.8125C51.1875 30.3542 51.0312 29.9688 50.7188 29.6562C50.4062 29.3438 50.0312 29.1875 49.5938 29.1875Z" fill="#BDBDBD"/>
</svg>
