<svg width="20" height="13" viewBox="0 0 20 13" fill="none" xmlns="http://www.w3.org/2000/svg">
<path d="M19.3555 6.85742L13.3496 12.8535C13.252 12.9512 13.1348 13 12.998 13C12.8613 13 12.7441 12.9512 12.6465 12.8535C12.5488 12.7559 12.5 12.6387 12.5 12.502C12.5 12.3652 12.5488 12.248 12.6465 12.1504L17.793 7.00391L1.50391 7.00391C1.36068 7.00391 1.24023 6.95508 1.14258 6.85742C1.04492 6.75977 0.996093 6.63932 0.996093 6.4961C0.996093 6.35938 1.04492 6.24219 1.14258 6.14453C1.24023 6.04688 1.36068 5.99805 1.50391 5.99805L17.793 5.99805L12.6465 0.851563C12.5488 0.753907 12.5 0.636719 12.5 0.500001C12.5 0.363282 12.5488 0.246094 12.6465 0.148438C12.6921 0.0963551 12.7474 0.0572926 12.8125 0.0312506C12.8711 0.0117193 12.9329 0.0019537 12.998 0.00195369C13.0631 0.00195369 13.1283 0.0117193 13.1934 0.0312506C13.252 0.0572925 13.304 0.096355 13.3496 0.148438L19.3555 6.14453C19.4531 6.24219 19.502 6.35938 19.502 6.49609C19.502 6.63932 19.4531 6.75977 19.3555 6.85742Z" fill="black"/>
</svg>
