<svg width="20" height="13" viewBox="0 0 20 13" fill="none" xmlns="http://www.w3.org/2000/svg">
<path d="M0.644531 6.14258L6.65039 0.146484C6.74805 0.0488281 6.86523 0 7.00195 0C7.13867 0 7.25586 0.0488281 7.35352 0.146484C7.45117 0.244141 7.5 0.361328 7.5 0.498047C7.5 0.634766 7.45117 0.751953 7.35352 0.849609L2.20703 5.99609H18.4961C18.6393 5.99609 18.7598 6.04492 18.8574 6.14258C18.9551 6.24023 19.0039 6.36068 19.0039 6.50391C19.0039 6.64062 18.9551 6.75781 18.8574 6.85547C18.7598 6.95312 18.6393 7.00195 18.4961 7.00195H2.20703L7.35352 12.1484C7.45117 12.2461 7.5 12.3633 7.5 12.5C7.5 12.6367 7.45117 12.7539 7.35352 12.8516C7.30794 12.9036 7.2526 12.9427 7.1875 12.9688C7.12891 12.9883 7.06706 12.998 7.00195 12.998C6.93685 12.998 6.87174 12.9883 6.80664 12.9688C6.74805 12.9427 6.69596 12.9036 6.65039 12.8516L0.644531 6.85547C0.546875 6.75781 0.498047 6.64062 0.498047 6.50391C0.498047 6.36068 0.546875 6.24023 0.644531 6.14258Z" fill="black"/>
</svg>
