<svg width="19" height="21" viewBox="0 0 19 21" fill="none" xmlns="http://www.w3.org/2000/svg">
<path d="M18.8672 20.166L12.9297 13.6816C13.2617 13.3301 13.5547 12.9557 13.8086 12.5586C14.069 12.1549 14.2871 11.735 14.4629 11.2988C14.6387 10.8561 14.7721 10.4004 14.8633 9.93164C14.9544 9.46289 15 8.98438 15 8.49609C15 7.99479 14.9512 7.50326 14.8535 7.02148C14.7624 6.53971 14.6224 6.07422 14.4336 5.625C14.2448 5.17578 14.0137 4.74935 13.7402 4.3457C13.4668 3.93555 13.1543 3.55143 12.8027 3.19336C12.4512 2.8418 12.0703 2.5293 11.6602 2.25586C11.25 1.98242 10.8203 1.75456 10.3711 1.57227C9.92188 1.38346 9.45638 1.24023 8.97461 1.14258C8.49284 1.04492 8.0013 0.996094 7.5 0.996094C6.9987 0.996094 6.50716 1.04492 6.02539 1.14258C5.54362 1.24023 5.07812 1.38346 4.62891 1.57227C4.17969 1.75456 3.75 1.98242 3.33984 2.25586C2.92969 2.5293 2.54883 2.8418 2.19727 3.19336C1.8457 3.55143 1.5332 3.93555 1.25977 4.3457C0.986328 4.74935 0.755208 5.17578 0.566406 5.625C0.377604 6.07422 0.234375 6.53971 0.136719 7.02148C0.0455729 7.50326 0 7.99479 0 8.49609C0 8.9974 0.0455729 9.48893 0.136719 9.9707C0.234375 10.4525 0.377604 10.918 0.566406 11.3672C0.755208 11.8164 0.986328 12.2461 1.25977 12.6562C1.5332 13.0664 1.8457 13.4473 2.19727 13.7988C2.54883 14.1569 2.92969 14.4727 3.33984 14.7461C3.75 15.0195 4.17969 15.2507 4.62891 15.4395C5.07812 15.6217 5.54362 15.7617 6.02539 15.8594C6.50716 15.9505 6.9987 15.9961 7.5 15.9961C7.92969 15.9961 8.35286 15.9603 8.76953 15.8887C9.19271 15.8171 9.59961 15.7129 9.99023 15.5762C10.3874 15.4395 10.7682 15.2702 11.1328 15.0684C11.5039 14.86 11.8555 14.6224 12.1875 14.3555L18.1348 20.8398C18.1803 20.8919 18.2357 20.931 18.3008 20.957C18.3659 20.9831 18.431 20.9961 18.4961 20.9961C18.5612 20.9961 18.623 20.9863 18.6816 20.9668C18.7402 20.9473 18.7923 20.9147 18.8379 20.8691C18.9421 20.778 18.9941 20.6608 18.9941 20.5176C19.0007 20.3809 18.9583 20.2637 18.8672 20.166ZM0.996094 8.49609C0.996094 7.60417 1.16536 6.76432 1.50391 5.97656C1.84896 5.18229 2.31445 4.49219 2.90039 3.90625C3.49284 3.32031 4.18294 2.85807 4.9707 2.51953C5.75846 2.17448 6.60156 2.00195 7.5 2.00195C8.39844 2.00195 9.24154 2.17448 10.0293 2.51953C10.8171 2.85807 11.5039 3.32031 12.0898 3.90625C12.6823 4.49219 13.1478 5.18229 13.4863 5.97656C13.8314 6.76432 14.0039 7.60417 14.0039 8.49609C14.0039 9.39453 13.8314 10.2376 13.4863 11.0254C13.1478 11.8132 12.6823 12.5033 12.0898 13.0957C11.5039 13.6816 10.8171 14.1471 10.0293 14.4922C9.24154 14.8307 8.39844 15 7.5 15C6.60156 15 5.75846 14.8307 4.9707 14.4922C4.18294 14.1471 3.49284 13.6816 2.90039 13.0957C2.31445 12.5033 1.84896 11.8132 1.50391 11.0254C1.16536 10.2376 0.996094 9.39453 0.996094 8.49609Z" fill="#C7C7CC"/>
</svg>
